<?xml version="1.0" encoding="UTF-8"?><svg id="Capa_1" xmlns="http://www.w3.org/2000/svg" viewBox="0 0 164 130.87"><g><path d="M137.95,65.95c-3.05-1.22-3.88-4.52-4.96-7.51-.47-1.28-1.11-1.87-2.25-1.76-1.24,.12-1.83,1.13-1.69,2.39,.61,5.32-2.8,5.88-5.8,6.96-.52-25.2-14.21-42.46-31.08-47.17-26.42-7.37-50.65,13.98-51.34,47.08-3.18-.55-4.53-5.58-9.09-4.05-2.06,.69-3.67,1.6-5.33,2.87-.36-24.73,15.03-50.99,34.76-59.8C82.46-4.54,102.05-.29,118.96,16.73c12.45,12.53,18.76,29.55,18.99,49.22Z" fill="#93bfe5"/><path d="M75.18,93.7c-.06-19.6-.16-39.2-.16-58.8,0-4.39,2.53-6.72,6.86-6.9,4.27-.18,7.08,2.52,7.09,7.2,.05,19.77-.05,39.54-.1,59.3-4.4-3.13-8.96-3.6-13.7-.79Z" fill="#88bae4"/><path d="M75.18,93.7c4.74-2.81,9.3-2.33,13.7,.79,.04,9.46,.15,18.91,.09,28.37-.03,5.42-2.62,8.09-7.37,8-3.79-.07-6.56-3.19-6.57-7.81-.03-9.78,.09-19.57,.15-29.35Z" fill="#e9a08d"/><circle cx="130.5" cy="84.54" r="33.5" fill="#88bce4"/><path d="M150.16,85.55c.65,11.94-11.19,19.64-19.75,19.31-11.03-.42-19.5-9.32-19.27-20.58,.23-10.85,9.05-19.53,20.11-19.09,10.71,.42,19.33,7.36,18.91,20.36Z" fill="#f9ed90"/></g><circle cx="33.5" cy="84.54" r="33.5" fill="#88bce4"/><path d="M53.22,85.96c.65,11.94-11.19,19.64-19.75,19.31-11.03-.42-19.5-9.32-19.27-20.58,.23-10.85,9.05-19.53,20.11-19.09,10.71,.42,19.33,7.36,18.91,20.36Z" fill="#f9ed90"/></svg>